<?xml version="1.0" standalone="no"?>
<!DOCTYPE svg PUBLIC "-//W3C//DTD SVG 20010904//EN"
 "http://www.w3.org/TR/2001/REC-SVG-20010904/DTD/svg10.dtd">
<svg version="1.0" xmlns="http://www.w3.org/2000/svg"
 width="900.000000pt" height="900.000000pt" viewBox="0 0 900.000000 900.000000"
 preserveAspectRatio="xMidYMid meet">
<metadata>
Created by potrace 1.11, written by Peter Selinger 2001-2013
</metadata>
<g transform="translate(0.000000,900.000000) scale(0.100000,-0.100000)"
fill="#000000" stroke="none">
<path d="M4180 8969 c-938 -66 -1820 -424 -2560 -1038 -141 -118 -406 -379
-527 -522 -1107 -1302 -1381 -3103 -712 -4672 449 -1052 1304 -1907 2356
-2356 796 -339 1671 -442 2527 -296 1200 206 2273 903 2957 1922 521 776 781
1675 755 2613 -4 129 -8 251 -11 270 -2 19 -9 78 -15 130 -215 1846 -1553
3370 -3360 3825 -447 113 -948 157 -1410 124z m1030 -3065 c190 -43 353 -172
441 -348 61 -125 69 -179 69 -506 0 -257 2 -289 19 -325 40 -85 103 -130 196
-141 103 -12 202 41 245 133 22 46 23 61 26 338 2 164 8 318 15 355 31 174
172 355 339 438 141 69 179 74 524 70 282 -4 305 -5 366 -27 167 -58 308 -179
379 -322 73 -151 71 -118 71 -930 l0 -726 -23 -44 c-66 -125 -235 -145 -331
-39 -19 21 -39 56 -45 77 -7 25 -11 269 -11 717 0 486 -3 690 -12 717 -16 55
-73 118 -132 145 -49 23 -60 24 -291 24 -231 0 -242 -1 -291 -24 -45 -21 -97
-72 -130 -126 -5 -8 -12 -159 -15 -335 -6 -347 -9 -362 -70 -488 -85 -175
-261 -309 -456 -347 -81 -16 -262 -8 -328 14 -202 68 -353 209 -418 391 -38
107 -46 196 -44 475 1 245 1 257 -20 296 -29 54 -101 117 -151 132 -51 15
-482 16 -536 1 -21 -6 -58 -29 -83 -52 -84 -77 -77 -14 -83 -817 -5 -708 -5
-715 -27 -755 -39 -74 -105 -115 -183 -115 -78 0 -144 41 -183 115 -22 40 -22
46 -25 715 -4 812 -1 845 83 996 66 118 154 203 275 264 113 57 147 63 400 70
268 7 348 4 440 -16z m-1562 -3 c150 -77 154 -289 7 -369 -27 -16 -142 -17
-1285 -22 l-1255 -5 -41 -22 c-179 -96 -176 -343 6 -427 45 -21 56 -21 1110
-26 947 -5 1070 -8 1111 -22 109 -38 246 -124 305 -191 188 -214 210 -522 55
-760 -62 -94 -135 -158 -246 -213 -155 -77 -106 -74 -1237 -74 -690 0 -1023
-3 -1058 -11 -188 -40 -245 -278 -97 -404 79 -68 11 -65 1359 -65 1077 0 1223
-2 1256 -15 166 -70 166 -310 0 -380 -33 -13 -182 -15 -1286 -15 -1201 0
-1252 1 -1324 19 -300 77 -500 332 -499 637 0 109 19 192 69 294 50 104 168
223 272 274 154 75 65 70 1250 76 1150 5 1081 2 1157 58 61 45 89 150 62 233
-17 51 -76 106 -136 129 -52 19 -79 20 -1073 20 -1109 0 -1076 -2 -1213 56
-282 119 -444 448 -368 746 60 236 223 403 461 474 l75 23 1263 0 c1222 1
1264 0 1300 -18z m4789 -1745 c106 -50 147 -182 91 -291 -41 -78 -145 -120
-236 -94 -158 44 -200 265 -70 362 70 52 137 59 215 23z m-3338 -490 c22 -27
-12 -35 -155 -38 -131 -3 -139 -4 -139 -23 0 -19 8 -20 133 -25 126 -5 135 -6
153 -29 10 -13 19 -31 19 -41 0 -10 -9 -28 -19 -41 -18 -23 -27 -24 -153 -29
-125 -5 -133 -6 -133 -25 0 -19 8 -20 150 -25 124 -4 150 -8 150 -20 0 -13
-25 -15 -154 -18 -172 -3 -191 3 -191 61 0 59 19 67 154 67 128 0 150 6 144
36 -3 17 -16 19 -134 24 -146 6 -164 13 -164 65 0 31 19 56 50 68 8 3 74 6
146 6 100 1 134 -2 143 -13z m851 -131 c5 -132 6 -140 25 -140 18 0 21 8 25
78 6 101 14 107 132 107 121 0 128 -7 128 -134 0 -96 -8 -118 -35 -96 -11 9
-15 35 -15 95 0 94 -1 95 -80 95 -77 0 -80 -3 -80 -77 0 -58 -3 -67 -29 -94
-16 -16 -37 -29 -46 -29 -9 0 -30 13 -46 29 -29 29 -29 30 -29 154 0 137 4
160 29 155 14 -3 17 -24 21 -143z m1137 129 c3 -8 1 -20 -6 -27 -14 -14 -47
15 -37 32 10 16 36 13 43 -5z m-77 -89 c24 -29 -3 -36 -136 -36 -71 0 -137 -2
-146 -5 -15 -5 -18 -18 -18 -94 0 -65 -4 -89 -14 -93 -27 -10 -36 17 -36 103
0 77 2 89 23 107 33 30 40 31 183 32 107 1 134 -2 144 -14z m80 -110 c0 -87
-3 -114 -14 -118 -28 -11 -36 17 -36 118 0 101 8 129 36 118 11 -4 14 -31 14
-118z m380 110 c26 -31 -4 -40 -153 -45 l-142 -5 -3 -56 c-2 -38 1 -59 11 -67
8 -7 68 -13 153 -14 131 -3 139 -4 139 -23 0 -19 -8 -20 -135 -23 -151 -3
-172 0 -200 28 -16 16 -20 33 -20 93 1 116 17 126 201 127 111 0 139 -3 149
-15z m-2290 -90 l5 -90 125 0 125 0 5 90 c5 82 7 90 25 90 18 0 20 -8 23 -80
5 -148 -5 -157 -192 -148 -120 6 -128 7 -146 31 -16 19 -20 40 -20 98 0 84 6
106 29 102 13 -3 17 -21 21 -93z m670 75 c28 -28 29 -157 1 -191 -18 -22 -28
-24 -126 -27 -124 -4 -158 1 -153 26 3 15 20 18 123 22 l120 5 3 68 3 68 -128
-3 -128 -3 -3 -133 c-2 -110 -5 -134 -18 -139 -27 -10 -34 18 -34 150 0 123 1
129 25 152 23 24 29 25 160 25 122 0 137 -2 155 -20z m767 -2 c20 -19 23 -31
23 -94 0 -111 -9 -118 -155 -122 -133 -4 -156 0 -185 30 -29 32 -29 144 1 182
20 26 21 26 157 26 126 0 137 -2 159 -22z m-2310 -282 c106 -50 147 -182 91
-291 -41 -78 -145 -120 -236 -94 -158 44 -200 265 -70 362 70 52 137 59 215
23z m3411 -64 l3 -42 142 0 c151 0 180 -7 161 -37 -10 -16 -30 -18 -158 -21
l-147 -3 3 -62 3 -62 144 -5 c124 -4 145 -7 155 -23 19 -30 -10 -37 -156 -37
-132 0 -137 1 -167 26 l-31 26 0 137 c0 76 3 141 7 145 19 18 38 -1 41 -42z
m-2777 -21 c25 -26 29 -37 29 -85 0 -46 4 -57 21 -66 32 -17 46 3 51 72 6 84
33 108 122 108 49 0 67 -4 84 -20 30 -28 33 -49 30 -165 -3 -99 -3 -100 -28
-100 -25 0 -25 0 -28 104 -1 58 -8 111 -14 118 -13 17 -82 17 -96 1 -5 -7 -12
-39 -14 -70 -5 -67 -25 -95 -73 -104 -37 -7 -89 15 -99 41 -3 9 -6 38 -6 64 0
66 -15 83 -70 79 l-45 -3 -2 -95 c-4 -126 -8 -142 -36 -138 -21 3 -22 8 -25
116 l-3 113 30 29 c26 26 37 30 86 30 49 0 60 -4 86 -29z m1448 -36 c48 -24
55 -72 16 -111 -24 -24 -28 -25 -147 -22 -115 3 -123 4 -123 23 0 19 8 20 120
25 112 5 120 6 120 25 0 19 -7 20 -125 20 l-125 0 -3 -64 c-2 -45 1 -67 10
-72 7 -5 75 -9 150 -9 139 0 162 -6 137 -36 -10 -13 -37 -15 -155 -12 -135 3
-144 4 -168 27 -23 22 -26 32 -26 95 1 112 20 125 178 126 80 0 121 -4 141
-15z m862 -14 c28 -34 24 -75 -8 -101 -24 -19 -37 -20 -147 -18 -113 3 -121 4
-121 23 0 19 8 20 118 23 96 2 119 6 124 18 3 9 0 20 -8 25 -16 10 -209 12
-233 3 -12 -5 -16 -21 -16 -69 0 -79 1 -80 164 -70 105 6 124 5 135 -9 11 -13
11 -19 0 -32 -11 -13 -35 -15 -155 -12 -135 3 -144 4 -168 27 -23 22 -26 32
-26 95 1 116 19 127 193 124 122 -3 130 -4 148 -27z m378 5 c19 -17 21 -30 21
-116 0 -74 -3 -99 -14 -103 -26 -10 -36 17 -36 100 l0 84 -127 -3 -128 -3 -3
-85 c-3 -85 -14 -109 -39 -88 -9 7 -13 38 -13 95 0 81 1 86 30 115 l30 30 129
-4 c110 -3 132 -6 150 -22z m-1985 -7 c24 -19 26 -27 26 -89 0 -84 -5 -97 -41
-115 -34 -18 -220 -21 -267 -4 -40 14 -56 53 -50 130 7 93 18 99 178 99 114 0
130 -2 154 -21z m96 -74 l5 -90 125 0 125 0 5 90 c5 82 7 90 25 90 18 0 20 -8
23 -80 4 -102 -2 -121 -38 -140 -35 -18 -236 -21 -273 -4 -36 16 -47 50 -47
138 0 81 4 94 30 89 12 -3 16 -23 20 -93z m878 73 c13 -15 22 -39 24 -68 3
-38 7 -46 26 -48 20 -3 22 1 22 41 0 68 28 97 93 97 38 0 56 -5 74 -22 21 -19
23 -30 23 -114 0 -69 -3 -93 -14 -97 -26 -10 -36 17 -36 101 l0 83 -42 -3 -43
-3 -3 -45 c-6 -83 -75 -118 -127 -65 -19 18 -25 35 -25 70 l0 46 -42 -3 -43
-3 -3 -85 c-3 -85 -14 -109 -39 -88 -9 7 -13 38 -13 93 0 68 4 87 21 109 17
22 28 26 73 26 42 0 57 -5 74 -22z"/>
<path d="M5128 5873 c7 -3 16 -2 19 1 4 3 -2 6 -13 5 -11 0 -14 -3 -6 -6z"/>
<path d="M6716 5864 c-58 -14 -191 -72 -183 -80 2 -2 20 2 39 10 20 9 38 13
41 10 3 -4 23 -8 43 -10 21 -2 45 -11 53 -20 13 -14 14 -16 1 -10 -9 5 -8 2 3
-7 9 -8 17 -19 17 -26 0 -6 7 -14 15 -17 8 -4 15 -14 15 -23 0 -14 -2 -14 -10
-1 -6 9 -10 10 -10 3 0 -7 8 -16 17 -22 10 -5 18 -18 18 -28 0 -10 5 -17 12
-16 7 2 10 -4 7 -12 -4 -10 0 -15 12 -16 18 0 17 -1 -1 -9 -11 -4 -33 -22 -49
-38 l-28 -30 38 13 c29 11 103 14 289 14 242 1 252 0 301 -23 68 -32 115 -74
144 -133 l25 -48 5 -716 5 -715 27 -41 c33 -51 97 -78 160 -70 80 11 133 73
143 170 4 34 5 364 2 732 -4 737 -2 708 -68 845 -45 91 -170 215 -265 263
-124 62 -158 67 -475 66 -209 0 -300 -4 -343 -15z"/>
<path d="M5231 5848 c153 -54 285 -167 356 -304 23 -44 47 -97 53 -119 9 -26
15 -151 20 -355 8 -350 11 -365 73 -436 39 -44 94 -81 105 -70 3 3 0 6 -7 6
-20 0 -101 82 -124 125 -21 38 -22 57 -28 370 -7 353 -9 367 -64 477 -39 78
-91 144 -154 195 -64 53 -197 119 -256 128 -32 5 -27 1 26 -17z"/>
<path d="M6672 5488 c-54 -44 -81 -79 -103 -139 -17 -44 -19 -79 -19 -327 0
-318 -8 -373 -69 -497 -29 -60 -33 -72 -15 -50 39 49 84 149 99 222 11 50 15
143 15 344 0 326 4 344 86 426 29 29 51 53 50 53 -2 0 -22 -15 -44 -32z"/>
<path d="M4381 5280 c-7 -90 -6 -1369 2 -1341 4 16 6 335 4 708 -1 373 -4 658
-6 633z"/>
<path d="M1030 5864 c-329 -88 -524 -420 -440 -748 43 -169 156 -309 310 -385
139 -68 165 -71 678 -71 300 0 451 3 447 10 -3 6 -14 10 -25 10 -10 0 -21 7
-24 16 -3 8 -10 12 -16 9 -15 -9 -12 2 6 19 10 10 11 16 3 16 -8 0 -8 4 -1 13
5 6 9 29 8 50 -1 21 1 40 5 43 5 3 6 11 2 19 -3 8 0 15 5 15 6 0 9 9 7 20 -3
15 2 20 17 20 12 0 18 3 15 7 -12 11 46 34 102 39 31 3 146 9 256 13 146 6 11
8 -496 9 -424 1 -717 6 -750 12 -117 22 -194 90 -225 198 -30 103 12 230 98
293 82 58 89 59 689 59 355 0 550 4 554 10 3 6 -3 10 -15 10 -12 0 -18 5 -15
10 3 6 2 10 -3 10 -5 0 -9 7 -9 15 0 8 4 12 9 9 5 -4 9 0 8 7 -4 25 12 59 26
59 7 0 17 12 20 28 4 15 14 36 23 46 9 11 10 16 4 12 -19 -11 -15 2 7 24 11
11 29 20 40 20 11 0 20 3 20 8 0 4 11 12 25 19 19 8 23 8 18 0 -5 -9 -3 -9 8
0 21 17 121 25 407 33 168 4 -91 7 -743 8 -853 1 -1008 -1 -1055 -14z m1240
-148 c0 -2 -7 -9 -15 -16 -13 -11 -14 -10 -9 4 5 14 24 23 24 12z"/>
<path d="M3583 5865 c45 -15 83 -48 104 -89 17 -33 19 -115 3 -148 -11 -22
-11 -22 5 -3 75 94 -2 256 -122 255 -26 -1 -26 -2 10 -15z"/>
<path d="M3178 4983 c7 -3 16 -2 19 1 4 3 -2 6 -13 5 -11 0 -14 -3 -6 -6z"/>
<path d="M3268 4963 c7 -3 16 -2 19 1 4 3 -2 6 -13 5 -11 0 -14 -3 -6 -6z"/>
<path d="M3368 4923 c230 -120 352 -326 340 -576 -3 -66 -2 -91 4 -72 13 45
11 203 -2 260 -37 152 -156 305 -295 377 -38 19 -81 39 -95 43 -14 4 8 -11 48
-32z"/>
<path d="M3691 4224 c0 -11 3 -14 6 -6 3 7 2 16 -1 19 -3 4 -6 -2 -5 -13z"/>
<path d="M1022 4120 c-174 -46 -319 -162 -391 -313 -49 -103 -63 -165 -63
-275 1 -240 130 -445 348 -551 126 -61 117 -61 932 -61 493 0 741 3 737 10 -3
6 -24 10 -46 10 -24 0 -38 4 -34 10 3 6 -1 11 -9 11 -37 3 -41 5 -40 22 1 9
-2 14 -7 11 -5 -3 -9 2 -9 11 0 9 -4 13 -10 10 -5 -3 -12 6 -16 20 -3 14 -12
25 -20 25 -8 0 -14 5 -14 11 0 5 5 7 10 4 6 -3 10 -1 10 6 0 7 -9 9 -22 6 -20
-5 -21 -4 -6 6 15 10 14 13 -10 24 -15 7 -19 11 -10 9 15 -5 16 -2 6 14 -7 10
-16 18 -21 17 -5 -1 -12 4 -15 12 -2 8 0 11 6 7 5 -3 12 1 16 9 3 8 12 15 20
15 8 0 16 5 18 11 4 13 208 26 473 31 94 1 -257 5 -780 8 l-950 5 -50 23 c-60
27 -119 82 -148 137 -17 31 -22 57 -22 120 0 94 20 140 84 198 83 74 59 72
614 75 273 2 497 6 497 11 0 4 -19 16 -41 27 -23 10 -36 20 -30 22 9 3 9 7 0
18 -6 8 -13 35 -14 61 -2 27 -6 64 -10 83 -6 31 -3 38 24 58 37 27 73 31 356
41 150 6 -3 8 -540 9 -708 1 -754 0 -823 -18z"/>
<path d="M3596 3231 c82 -37 124 -138 95 -223 -11 -30 -10 -32 4 -17 38 37 37
136 -1 194 -18 27 -85 65 -115 65 -19 0 -16 -4 17 -19z"/>
<path d="M8285 4126 c-45 -20 -82 -66 -96 -116 -42 -162 159 -277 279 -159
129 126 -19 348 -183 275z"/>
<path d="M6337 3523 c-4 -3 -7 -32 -7 -64 0 -43 4 -58 16 -63 9 -3 60 -6 114
-6 54 0 105 3 114 6 12 5 16 21 16 70 l0 64 -123 0 c-68 0 -127 -3 -130 -7z"/>
<path d="M4243 3245 c45 -16 83 -48 104 -90 19 -35 21 -122 4 -153 -6 -12 -9
-22 -7 -22 14 0 38 69 38 110 0 76 -45 141 -113 160 -51 15 -70 11 -26 -5z"/>
<path d="M5364 3096 c-3 -7 -4 -38 -2 -67 l3 -54 125 0 125 0 3 68 3 67 -126
0 c-97 0 -127 -3 -131 -14z"/>
</g>
</svg>
